<svg width="48" height="48" viewBox="0 0 48 48" fill="none" xmlns="http://www.w3.org/2000/svg">
<g clip-path="url(#clip0_6077_13667)">
<rect width="48" height="48" fill="white"/>
<path d="M37.2462 4.16347C30.6535 10.7562 24.2343 17.1754 17.6416 23.7681C20.938 27.0645 24.2343 30.1873 27.5307 33.4837C27.5307 33.6572 27.3572 33.6572 27.3572 33.8307C27.0102 33.8307 26.8367 33.8307 26.4897 33.8307C24.7548 33.8307 23.1934 33.8307 21.4584 33.8307C21.1114 33.8307 20.591 33.6572 20.4175 33.4837C17.2946 30.3608 14.1717 27.2379 11.0489 24.1151C11.0489 24.1151 10.8754 23.9416 10.8754 23.7681C16.9476 17.6959 23.0199 11.6236 29.2656 5.37792C25.4488 4.33696 21.9789 4.33696 18.3356 5.55141C6.53808 9.19475 1.3333 22.0332 6.88506 32.9632C11.7429 42.3318 24.0608 45.9751 33.2559 40.7703C34.1234 40.2499 34.6439 40.4234 35.3378 41.1173C36.0318 41.8113 36.8993 42.5053 37.5932 43.1992C31.174 48.5775 17.9886 50.4859 8.273 41.9848C-1.78956 33.3102 -2.83052 18.0429 6.0176 7.9803C15.0392 -1.90876 28.9186 -1.90876 37.2462 4.16347Z" fill="#187C88"/>
<path d="M37.0727 15.0929L28.3981 23.7675L39.8486 35.0445C42.798 30.8807 43.8389 26.3699 43.145 21.1651C42.451 16.3073 40.0221 12.4905 36.5523 9.19412C36.2053 8.84714 36.2053 8.50015 36.5523 8.15317L39.1546 5.55078C40.8896 6.93872 42.2775 8.50015 43.492 10.4086C50.0847 19.6037 49.0437 32.2686 41.2366 40.4227C39.8486 41.9842 39.5016 42.3311 38.8077 41.6372C33.2559 36.0854 27.7041 30.3602 22.1524 24.8084C21.4584 24.1145 21.4584 23.7675 22.1524 23.0735C24.7548 20.4711 27.1837 18.0422 29.786 15.4398C30.133 15.0929 30.6535 14.9194 31.174 14.7459C33.0824 14.7459 34.9908 14.7459 36.7257 14.7459C36.8992 14.9194 36.8992 14.9194 37.0727 15.0929Z" fill="#58595B"/>
</g>
<defs>
<clipPath id="clip0_6077_13667">
<rect width="48" height="48" fill="white"/>
</clipPath>
</defs>
</svg>
