<svg width="44" height="44" viewBox="0 0 44 44" fill="none" xmlns="http://www.w3.org/2000/svg">
<rect width="44" height="44" rx="22" fill="white"/>
<path d="M33.5743 4.64124C27.8086 10.407 22.1945 16.0211 16.4288 21.7868C19.3117 24.6698 22.1945 27.4009 25.0775 30.2838C25.0775 30.4355 24.9257 30.4355 24.9257 30.5873C24.6223 30.5873 24.4705 30.5873 24.167 30.5873C22.6498 30.5873 21.2842 30.5873 19.7668 30.5873C19.4634 30.5873 19.0082 30.4355 18.8565 30.2838C16.1253 27.5526 13.3941 24.8214 10.663 22.0903C10.663 22.0903 10.5113 21.9386 10.5113 21.7868C15.8218 16.4763 21.1325 11.1656 26.5948 5.70336C23.2567 4.79297 20.222 4.79297 17.0357 5.85509C6.718 9.04144 2.16606 20.2695 7.02146 29.8286C11.27 38.022 22.0428 41.2084 30.0846 36.6564C30.8432 36.2013 31.2984 36.353 31.9053 36.9599C32.5123 37.5668 33.271 38.1738 33.8778 38.7806C28.2638 43.4843 16.7323 45.1534 8.2353 37.7186C-0.565091 30.132 -1.47548 16.7797 6.2628 7.97932C14.1528 -0.669341 26.2913 -0.669341 33.5743 4.64124Z" fill="#187C88"/>
<path d="M33.4225 14.1997L25.836 21.7863L35.8502 31.6488C38.4297 28.0072 39.34 24.0622 38.7331 19.5103C38.1262 15.2618 36.0019 11.9238 32.9674 9.04084C32.6639 8.73738 32.6639 8.43392 32.9674 8.13046L35.2433 5.85449C36.7606 7.06834 37.9744 8.43392 39.0366 10.103C44.8024 18.1447 43.8919 29.221 37.0641 36.3524C35.8502 37.718 35.5467 38.0214 34.9399 37.4145C30.0844 32.5591 25.229 27.552 20.3737 22.6966C19.7667 22.0897 19.7667 21.7863 20.3737 21.1793C22.6496 18.9033 24.7739 16.7791 27.0498 14.5031C27.3532 14.1997 27.8085 14.048 28.2637 13.8963C29.9327 13.8963 31.6017 13.8963 33.119 13.8963C33.2708 14.048 33.2708 14.048 33.4225 14.1997Z" fill="#58595B"/>
</svg>
