<svg width="153" height="57" viewBox="0 0 153 57" fill="none" xmlns="http://www.w3.org/2000/svg">
<g clip-path="url(#clip0_7_2)">
<path d="M1.34715 24.2465H3.77201V32.1433C4.9575 30.887 8.98098 26.8489 11.4597 24.2465H14.4594L7.5081 31.1382L14.8007 40.6322H11.8369L5.78375 32.7176L3.77201 34.5661V40.6322H1.34715V24.2465Z" fill="white"/>
<path d="M33.4811 32.3586C33.4811 36.8813 30.9125 40.8656 25.7215 40.8656C20.8359 40.8656 18.1416 37.1326 18.1416 32.4484C18.1416 27.7462 20.9257 24.0312 25.9191 24.0312C30.5533 24.0132 33.4811 27.4591 33.4811 32.3586ZM20.6742 32.3766C20.6742 35.8583 22.4165 38.8196 25.8113 38.8196C29.4935 38.8196 30.9305 35.7865 30.9305 32.3945C30.9305 28.9487 29.296 26.0771 25.8113 26.0771C22.2369 26.0592 20.6742 28.9307 20.6742 32.3766Z" fill="white"/>
<path d="M39.66 40.6322V24.2465H42.8213C45.1204 28.0513 49.9702 35.9122 50.8683 37.6889H50.9042C50.7425 35.6609 50.7605 33.0227 50.7605 30.3486V24.2465H53.0417V40.6322H50.06C47.9764 37.1505 42.8572 28.5897 41.8693 26.7412H41.8334C41.9591 28.5179 41.9591 31.4074 41.9591 34.3687V40.6322H39.66Z" fill="white"/>
<path d="M80.0205 24.2465V40.6322H77.5957V24.2465H80.0205Z" fill="white"/>
<path d="M88.3549 36.0198C88.786 37.9222 90.0972 38.9273 92.3784 38.9273C94.8032 38.9273 95.7912 37.8145 95.7912 36.3249C95.7912 34.7456 94.9829 33.8841 91.7856 33.1124C87.816 32.1612 86.5228 30.7793 86.5228 28.5C86.5228 25.9874 88.3729 24.0132 92.091 24.0132C96.0785 24.0132 97.7131 26.2746 97.9286 28.482H95.4678C95.1984 27.1181 94.3542 25.9336 92.0191 25.9336C90.1331 25.9336 89.0554 26.7771 89.0554 28.2667C89.0554 29.7204 89.9356 30.3127 92.7735 30.9946C97.4616 32.1253 98.3238 33.938 98.3238 36.0737C98.3238 38.7837 96.312 40.8476 92.2347 40.8476C88.1034 40.8476 86.2534 38.6401 85.9121 36.0378H88.3549V36.0198Z" fill="white"/>
<path d="M107.574 26.3105H102.347V24.2465H115.262V26.3105H110.017V40.6322H107.574V26.3105Z" fill="white"/>
<path d="M130.871 33.0945H122.77V38.5863H131.661L131.356 40.6502H120.381V24.2645H131.23V26.3284H122.752V31.0485H130.853V33.0945H130.871Z" fill="white"/>
<path d="M151.904 32.3586C151.904 36.8813 149.336 40.8656 144.145 40.8656C139.259 40.8656 136.565 37.1326 136.565 32.4484C136.565 27.7462 139.349 24.0312 144.342 24.0312C148.994 24.0132 151.904 27.4591 151.904 32.3586ZM139.097 32.3766C139.097 35.8583 140.84 38.8196 144.235 38.8196C147.917 38.8196 149.354 35.7865 149.354 32.3945C149.354 28.9487 147.719 26.0771 144.235 26.0771C140.66 26.0592 139.097 28.9307 139.097 32.3766ZM148.204 38.5863L153 41.9603L151.545 43.6294L145.977 39.699L148.204 38.5863Z" fill="white"/>
<path fill-rule="evenodd" clip-rule="evenodd" d="M62.2202 36.9531L63.9266 33.579L59.957 24.3004H56.5263L62.2202 36.9531Z" fill="white"/>
<path fill-rule="evenodd" clip-rule="evenodd" d="M79.1404 9.33249L65.2917 36.7377L63.6213 40.04L63.8728 40.5964H66.603L79.1404 9.33249Z" fill="white"/>
<path fill-rule="evenodd" clip-rule="evenodd" d="M82.4993 5.47387L73.4285 28.3026L87.852 0L77.9369 5.83281L82.4993 5.47387Z" fill="white"/>
<path d="M2.04766 55.0967L0 47.3794H1.04179L2.20932 52.4405C2.33506 52.9789 2.44283 53.4994 2.53264 54.0198C2.73022 53.1943 2.83799 52.7276 2.87391 52.602L4.3468 47.3973H5.58617L6.69981 51.3098C6.9872 52.2431 7.18479 53.1584 7.31052 54.0198C7.40033 53.5353 7.54402 52.9789 7.68772 52.3328L8.89117 47.3794H9.915L7.79549 55.0967H6.82555L5.19101 49.228C5.04731 48.7434 4.97546 48.4383 4.9575 48.3306C4.88565 48.6895 4.79584 48.9946 4.724 49.228L3.08946 55.0967H2.04766Z" fill="white"/>
<path d="M11.1903 55.0967V47.3794H12.1423V50.1433C12.5913 49.6228 13.1482 49.3715 13.8127 49.3715C14.2259 49.3715 14.5851 49.4613 14.8905 49.6228C15.1958 49.7843 15.4114 50.0176 15.5551 50.3048C15.6988 50.5919 15.7526 51.0047 15.7526 51.5611V55.0967H14.8007V51.5611C14.8007 51.0945 14.6929 50.7355 14.4953 50.5201C14.2977 50.3048 13.9924 50.1971 13.6152 50.1971C13.3278 50.1971 13.0763 50.2689 12.8248 50.4125C12.5734 50.556 12.3938 50.7535 12.3039 51.0047C12.1962 51.256 12.1423 51.597 12.1423 52.0277V55.0787H11.1903V55.0967Z" fill="white"/>
<path d="M21.4466 53.284L22.4345 53.4096C22.2728 53.9839 21.9854 54.4326 21.5723 54.7377C21.1592 55.0608 20.6203 55.2043 19.9737 55.2043C19.1474 55.2043 18.5008 54.9531 18.0338 54.4506C17.5488 53.948 17.3153 53.2481 17.3153 52.3328C17.3153 51.3996 17.5488 50.6637 18.0338 50.1433C18.5188 49.6228 19.1475 49.3715 19.9198 49.3715C20.6742 49.3715 21.2849 49.6228 21.7519 50.1433C22.2189 50.6458 22.4704 51.3637 22.4704 52.2969C22.4704 52.3507 22.4704 52.4405 22.4704 52.5482H18.3032C18.3392 53.1584 18.5188 53.625 18.8241 53.966C19.1295 54.289 19.5247 54.4506 19.9917 54.4506C20.3329 54.4506 20.6383 54.3608 20.8898 54.1814C21.1053 53.9839 21.3029 53.6968 21.4466 53.284ZM18.3392 51.7585H21.4645C21.4286 51.2919 21.3029 50.9329 21.1053 50.6996C20.8 50.3407 20.4048 50.1612 19.9378 50.1612C19.5067 50.1612 19.1295 50.3048 18.8421 50.5919C18.5547 50.8791 18.3571 51.2739 18.3392 51.7585Z" fill="white"/>
<path d="M24.0331 55.0967V49.5151H24.8773V50.3586C25.0929 49.9638 25.2904 49.6946 25.488 49.5689C25.6676 49.4433 25.8832 49.3715 26.0987 49.3715C26.4221 49.3715 26.7454 49.4792 27.0687 49.6766L26.7454 50.556C26.5119 50.4125 26.2784 50.3586 26.0449 50.3586C25.8293 50.3586 25.6497 50.4125 25.488 50.5381C25.3264 50.6637 25.2006 50.8432 25.1288 51.0586C25.021 51.3996 24.9671 51.7585 24.9671 52.1713V55.0967H24.0331Z" fill="white"/>
<path d="M31.9004 53.284L32.8884 53.4096C32.7267 53.9839 32.4393 54.4326 32.0262 54.7377C31.6131 55.0608 31.0742 55.2043 30.4276 55.2043C29.6013 55.2043 28.9547 54.9531 28.4877 54.4506C28.0027 53.948 27.7692 53.2481 27.7692 52.3328C27.7692 51.3996 28.0027 50.6637 28.4877 50.1433C28.9726 49.6228 29.6013 49.3715 30.3737 49.3715C31.1281 49.3715 31.7388 49.6228 32.2058 50.1433C32.6728 50.6458 32.9243 51.3637 32.9243 52.2969C32.9243 52.3507 32.9243 52.4405 32.9243 52.5482H28.7391C28.7751 53.1584 28.9547 53.625 29.26 53.966C29.5654 54.289 29.9606 54.4506 30.4276 54.4506C30.7688 54.4506 31.0742 54.3608 31.3257 54.1814C31.5592 53.9839 31.7568 53.6968 31.9004 53.284ZM28.7751 51.7585H31.9004C31.8645 51.2919 31.7388 50.9329 31.5412 50.6996C31.2359 50.3407 30.8407 50.1612 30.3737 50.1612C29.9426 50.1612 29.5654 50.3048 29.278 50.5919C28.9906 50.8791 28.811 51.2739 28.7751 51.7585Z" fill="white"/>
<path d="M40.2528 55.0967L37.2531 47.3794H38.3668L40.3785 52.9789C40.5402 53.4276 40.6838 53.8404 40.7916 54.2352C40.9174 53.8224 41.0431 53.3917 41.2047 52.9789L43.2883 47.3794H44.3301L41.3125 55.0967H40.2528Z" fill="white"/>
<path d="M45.354 48.4742V47.3794H46.3059V48.4742H45.354ZM45.354 55.0967V49.5151H46.3059V55.0967H45.354Z" fill="white"/>
<path d="M47.7968 53.4276L48.7308 53.284C48.7847 53.6609 48.9284 53.948 49.1799 54.1455C49.4134 54.3429 49.7546 54.4506 50.1857 54.4506C50.6168 54.4506 50.9401 54.3608 51.1557 54.1813C51.3712 54.0019 51.479 53.8045 51.479 53.5532C51.479 53.3378 51.3892 53.1763 51.1916 53.0507C51.0659 52.9609 50.7425 52.8533 50.2216 52.7276C49.5211 52.5482 49.0362 52.4046 48.7847 52.279C48.5332 52.1533 48.3177 51.9739 48.174 51.7405C48.0303 51.5072 47.9584 51.256 47.9584 50.9868C47.9584 50.7355 48.0123 50.5022 48.1381 50.2868C48.2638 50.0715 48.4075 49.892 48.6051 49.7664C48.7488 49.6587 48.9463 49.5689 49.2158 49.4972C49.4672 49.4254 49.7367 49.3895 50.042 49.3895C50.4731 49.3895 50.8683 49.4613 51.1916 49.5869C51.5149 49.7125 51.7664 49.892 51.928 50.1074C52.0897 50.3227 52.1975 50.6099 52.2513 50.9688L51.3173 51.0944C51.2814 50.8073 51.1557 50.574 50.9581 50.4125C50.7605 50.2509 50.4731 50.1791 50.0959 50.1791C49.6648 50.1791 49.3415 50.2509 49.1619 50.3945C48.9823 50.5381 48.8745 50.6996 48.8745 50.897C48.8745 51.0227 48.9104 51.1303 48.9823 51.238C49.0541 51.3457 49.1799 51.4175 49.3415 51.4893C49.4313 51.5252 49.7187 51.597 50.1857 51.7226C50.8503 51.9021 51.3173 52.0456 51.5868 52.1533C51.8562 52.261 52.0538 52.4405 52.2154 52.6558C52.3591 52.8712 52.4489 53.1404 52.4489 53.4635C52.4489 53.7865 52.3591 54.0737 52.1795 54.3608C51.9999 54.648 51.7305 54.8633 51.3892 55.0069C51.0479 55.1505 50.6527 55.2402 50.2037 55.2402C49.4852 55.2402 48.9284 55.0967 48.5512 54.7916C48.174 54.4865 47.9046 54.0198 47.7968 53.4276Z" fill="white"/>
<path d="M54.0116 48.4742V47.3794H54.9636V48.4742H54.0116ZM54.0116 55.0967V49.5151H54.9636V55.0967H54.0116Z" fill="white"/>
<path d="M56.4724 52.2969C56.4724 51.256 56.7598 50.5022 57.3346 49.9997C57.8196 49.5869 58.3943 49.3715 59.0949 49.3715C59.8672 49.3715 60.4959 49.6228 60.9809 50.1253C61.4658 50.6278 61.7173 51.3278 61.7173 52.2072C61.7173 52.9251 61.6095 53.4994 61.394 53.9121C61.1784 54.3249 60.8731 54.648 60.46 54.8813C60.0468 55.1146 59.5978 55.2223 59.1128 55.2223C58.3225 55.2223 57.6938 54.971 57.2089 54.4685C56.7239 53.966 56.4724 53.2481 56.4724 52.2969ZM57.4424 52.2969C57.4424 53.0148 57.604 53.5532 57.9094 53.9121C58.2147 54.2711 58.6099 54.4506 59.0949 54.4506C59.5619 54.4506 59.957 54.2711 60.2624 53.9121C60.5677 53.5532 60.7294 53.0148 60.7294 52.279C60.7294 51.597 60.5677 51.0586 60.2624 50.6996C59.957 50.3407 59.5619 50.1612 59.0949 50.1612C58.6278 50.1612 58.2327 50.3407 57.9094 50.6996C57.604 51.0406 57.4424 51.579 57.4424 52.2969Z" fill="white"/>
<path d="M63.262 55.0967V49.5151H64.1062V50.3048C64.5194 49.6946 65.1121 49.3895 65.8845 49.3895C66.2258 49.3895 66.5311 49.4433 66.8185 49.5689C67.1059 49.6946 67.3035 49.8561 67.4472 50.0535C67.5909 50.2509 67.6807 50.4842 67.7346 50.7535C67.7705 50.9329 67.7885 51.238 67.7885 51.6688V55.0967H66.8365V51.6867C66.8365 51.3098 66.8005 51.0047 66.7287 50.8252C66.6569 50.6278 66.5311 50.4842 66.3335 50.3766C66.136 50.2689 65.9204 50.1971 65.6689 50.1971C65.2738 50.1971 64.9145 50.3227 64.6271 50.574C64.3398 50.8252 64.1961 51.3098 64.1961 52.0277V55.0787H63.262V55.0967Z" fill="white"/>
<path d="M73.195 55.0967V47.3794H74.7397L76.5719 52.8353C76.7335 53.3378 76.8592 53.7327 76.9491 53.9839C77.0389 53.6968 77.1826 53.284 77.3622 52.7456L79.2123 47.3794H80.5953V55.0967H79.6074V48.6357L77.3622 55.0967H76.4461L74.2188 48.528V55.0967H73.195Z" fill="white"/>
<path d="M86.3611 53.284L87.349 53.4096C87.1874 53.9839 86.9 54.4326 86.4868 54.7377C86.0737 55.0608 85.5349 55.2043 84.8882 55.2043C84.062 55.2043 83.4154 54.9531 82.9483 54.4506C82.4634 53.948 82.2299 53.2481 82.2299 52.3328C82.2299 51.3996 82.4634 50.6637 82.9483 50.1433C83.4333 49.6228 84.062 49.3715 84.8343 49.3715C85.5887 49.3715 86.1995 49.6228 86.6665 50.1433C87.1335 50.6458 87.3849 51.3637 87.3849 52.2969C87.3849 52.3507 87.3849 52.4405 87.3849 52.5482H83.2178C83.2537 53.1584 83.4333 53.625 83.7387 53.966C84.044 54.289 84.4392 54.4506 84.9062 54.4506C85.2475 54.4506 85.5528 54.3608 85.8043 54.1814C86.0198 53.9839 86.2174 53.6968 86.3611 53.284ZM83.2357 51.7585H86.3611C86.3252 51.2919 86.1995 50.9329 86.0019 50.6996C85.6965 50.3407 85.3014 50.1612 84.8343 50.1612C84.4033 50.1612 84.0261 50.3048 83.7387 50.5919C83.4513 50.8791 83.2717 51.2739 83.2357 51.7585Z" fill="white"/>
<path d="M92.7735 53.284L93.7614 53.4096C93.5998 53.9839 93.3124 54.4326 92.8993 54.7377C92.4861 55.0608 91.9473 55.2043 91.3006 55.2043C90.4744 55.2043 89.8278 54.9531 89.3608 54.4506C88.8758 53.948 88.6423 53.2481 88.6423 52.3328C88.6423 51.3996 88.8758 50.6637 89.3608 50.1433C89.8457 49.6228 90.4744 49.3715 91.2468 49.3715C92.0012 49.3715 92.6119 49.6228 93.0789 50.1433C93.5459 50.6458 93.7974 51.3637 93.7974 52.2969C93.7974 52.3507 93.7974 52.4405 93.7974 52.5482H89.6302C89.6661 53.1584 89.8457 53.625 90.1511 53.966C90.4564 54.289 90.8516 54.4506 91.3186 54.4506C91.6599 54.4506 91.9652 54.3608 92.2167 54.1814C92.4502 53.9839 92.6298 53.6968 92.7735 53.284ZM89.6661 51.7585H92.7915C92.7556 51.2919 92.6298 50.9329 92.4322 50.6996C92.1269 50.3407 91.7317 50.1612 91.2647 50.1612C90.8336 50.1612 90.4564 50.3048 90.169 50.5919C89.8817 50.8791 89.702 51.2739 89.6661 51.7585Z" fill="white"/>
<path d="M97.4437 54.2352L97.5874 55.0787C97.3179 55.1325 97.0844 55.1684 96.8689 55.1684C96.5276 55.1684 96.2582 55.1146 96.0606 55.0069C95.863 54.8992 95.7373 54.7557 95.6654 54.5762C95.5936 54.3967 95.5576 54.0198 95.5576 53.4635V50.2509H94.8571V49.5151H95.5576V48.1332L96.5096 47.5589V49.5151H97.4616V50.2509H96.5096V53.5173C96.5096 53.7865 96.5276 53.966 96.5635 54.0378C96.5994 54.1096 96.6533 54.1814 96.7252 54.2172C96.797 54.2711 96.9048 54.289 97.0485 54.289C97.1383 54.2711 97.282 54.2711 97.4437 54.2352Z" fill="white"/>
<path d="M98.4315 53.4276L99.3656 53.284C99.4195 53.6609 99.5632 53.948 99.8146 54.1455C100.048 54.3429 100.389 54.4506 100.82 54.4506C101.252 54.4506 101.575 54.3608 101.79 54.1813C102.006 54.0019 102.114 53.8045 102.114 53.5532C102.114 53.3378 102.024 53.1763 101.826 53.0507C101.701 52.9609 101.377 52.8533 100.856 52.7276C100.156 52.5482 99.6709 52.4046 99.4195 52.279C99.168 52.1533 98.9524 51.9739 98.8087 51.7405C98.6651 51.5072 98.5932 51.256 98.5932 50.9868C98.5932 50.7355 98.6471 50.5022 98.7728 50.2868C98.8986 50.0715 99.0423 49.892 99.2398 49.7664C99.3835 49.6587 99.5811 49.5689 99.8505 49.4972C100.102 49.4254 100.371 49.3895 100.677 49.3895C101.108 49.3895 101.503 49.4613 101.826 49.5869C102.15 49.7125 102.401 49.892 102.563 50.1074C102.724 50.3227 102.832 50.6099 102.886 50.9688L101.952 51.0944C101.916 50.8073 101.79 50.574 101.593 50.4125C101.395 50.2509 101.108 50.1791 100.731 50.1791C100.3 50.1791 99.9763 50.2509 99.7967 50.3945C99.617 50.5381 99.5093 50.6996 99.5093 50.897C99.5093 51.0227 99.5452 51.1303 99.617 51.238C99.6889 51.3457 99.8146 51.4175 99.9763 51.4893C100.066 51.5252 100.353 51.597 100.82 51.7226C101.485 51.9021 101.952 52.0456 102.222 52.1533C102.491 52.261 102.689 52.4405 102.85 52.6558C102.994 52.8712 103.084 53.1404 103.084 53.4635C103.084 53.7865 102.994 54.0737 102.814 54.3608C102.635 54.648 102.365 54.8633 102.024 55.0069C101.683 55.1505 101.288 55.2402 100.838 55.2402C100.12 55.2402 99.5632 55.0967 99.186 54.7916C98.8088 54.4865 98.5393 54.0198 98.4315 53.4276Z" fill="white"/>
<path d="M108.203 55.0967V47.3794H111.634C112.316 47.3794 112.837 47.4512 113.196 47.5948C113.556 47.7383 113.843 47.9717 114.058 48.3306C114.274 48.6895 114.382 49.0664 114.382 49.4972C114.382 50.0535 114.202 50.5022 113.843 50.8791C113.484 51.256 112.945 51.4893 112.208 51.597C112.478 51.7226 112.675 51.8482 112.819 51.9739C113.124 52.2431 113.394 52.5841 113.663 52.9968L115.01 55.0967H113.735L112.711 53.4994C112.406 53.0327 112.172 52.6738 111.975 52.4405C111.777 52.1892 111.616 52.0277 111.454 51.92C111.292 51.8123 111.149 51.7585 110.987 51.7226C110.879 51.7047 110.682 51.6867 110.412 51.6867H109.227V55.1146H108.203V55.0967ZM109.227 50.7894H111.418C111.885 50.7894 112.244 50.7355 112.514 50.6458C112.783 50.556 112.981 50.3945 113.106 50.1791C113.232 49.9638 113.304 49.7305 113.304 49.4792C113.304 49.1203 113.178 48.8152 112.909 48.5819C112.639 48.3485 112.226 48.2229 111.652 48.2229H109.209V50.7894H109.227Z" fill="white"/>
<path d="M120.112 53.284L121.1 53.4096C120.938 53.9839 120.651 54.4326 120.237 54.7377C119.824 55.0608 119.285 55.2043 118.639 55.2043C117.813 55.2043 117.166 54.9531 116.699 54.4506C116.214 53.948 115.98 53.2481 115.98 52.3328C115.98 51.3996 116.214 50.6637 116.699 50.1433C117.184 49.6228 117.813 49.3715 118.585 49.3715C119.339 49.3715 119.95 49.6228 120.417 50.1433C120.884 50.6458 121.135 51.3637 121.135 52.2969C121.135 52.3507 121.135 52.4405 121.135 52.5482H116.932C116.968 53.1584 117.148 53.625 117.453 53.966C117.759 54.289 118.154 54.4506 118.621 54.4506C118.962 54.4506 119.267 54.3608 119.519 54.1814C119.77 53.9839 119.968 53.6968 120.112 53.284ZM116.986 51.7585H120.112C120.076 51.2919 119.95 50.9329 119.752 50.6996C119.447 50.3407 119.052 50.1612 118.585 50.1612C118.154 50.1612 117.777 50.3048 117.489 50.5919C117.202 50.8791 117.022 51.2739 116.986 51.7585Z" fill="white"/>
<path d="M126.362 54.3967C126.003 54.7018 125.68 54.8992 125.357 55.0249C125.033 55.1505 124.674 55.2043 124.315 55.2043C123.704 55.2043 123.219 55.0608 122.896 54.7557C122.572 54.4506 122.393 54.0737 122.393 53.607C122.393 53.3378 122.465 53.0866 122.572 52.8533C122.698 52.62 122.86 52.4405 123.057 52.3149C123.255 52.1892 123.489 52.0815 123.74 52.0098C123.92 51.9559 124.207 51.92 124.584 51.8662C125.357 51.7764 125.913 51.6688 126.273 51.5431C126.273 51.4175 126.273 51.3278 126.273 51.2919C126.273 50.897 126.183 50.6278 126.003 50.4843C125.77 50.2689 125.41 50.1612 124.925 50.1612C124.476 50.1612 124.153 50.233 123.938 50.3945C123.722 50.556 123.56 50.8252 123.471 51.2201L122.537 51.0945C122.626 50.6996 122.752 50.3766 122.95 50.1253C123.147 49.874 123.417 49.6946 123.794 49.5689C124.153 49.4433 124.584 49.3715 125.069 49.3715C125.554 49.3715 125.931 49.4254 126.237 49.5331C126.542 49.6407 126.758 49.7843 126.901 49.9638C127.045 50.1253 127.135 50.3407 127.189 50.6099C127.225 50.7714 127.243 51.0586 127.243 51.4893V52.7456C127.243 53.625 127.261 54.1814 127.296 54.4147C127.332 54.648 127.422 54.8633 127.53 55.0787H126.542C126.452 54.8992 126.38 54.6659 126.362 54.3967ZM126.273 52.279C125.931 52.4225 125.41 52.5302 124.728 52.6379C124.333 52.6917 124.063 52.7635 123.902 52.8353C123.74 52.9071 123.614 53.0148 123.524 53.1404C123.435 53.2661 123.399 53.4276 123.399 53.5891C123.399 53.8404 123.489 54.0557 123.686 54.2172C123.884 54.3788 124.153 54.4685 124.53 54.4685C124.89 54.4685 125.213 54.3967 125.5 54.2352C125.788 54.0737 125.985 53.8583 126.129 53.5891C126.237 53.3737 126.273 53.0686 126.273 52.6379V52.279Z" fill="white"/>
<path d="M129.111 55.0967V47.3794H130.063V55.0967H129.111Z" fill="white"/>
<path d="M131.967 48.4742V47.3794H132.919V48.4742H131.967ZM131.967 55.0967V49.5151H132.919V55.0967H131.967Z" fill="white"/>
<path d="M136.852 54.2352L136.996 55.0787C136.726 55.1325 136.493 55.1684 136.277 55.1684C135.936 55.1684 135.667 55.1146 135.469 55.0069C135.272 54.8992 135.146 54.7557 135.074 54.5762C135.002 54.3967 134.966 54.0198 134.966 53.4635V50.2509H134.266V49.5151H134.966V48.1332L135.918 47.5589V49.5151H136.87V50.2509H135.918V53.5173C135.918 53.7865 135.936 53.966 135.972 54.0378C136.008 54.1096 136.062 54.1814 136.134 54.2172C136.206 54.2711 136.313 54.289 136.457 54.289C136.547 54.2711 136.691 54.2711 136.852 54.2352Z" fill="white"/>
<path d="M138.181 57.2503L138.074 56.353C138.289 56.4068 138.469 56.4427 138.612 56.4427C138.828 56.4427 138.99 56.4068 139.115 56.335C139.241 56.2632 139.349 56.1735 139.421 56.0479C139.475 55.9581 139.582 55.7248 139.708 55.3479C139.726 55.2941 139.762 55.2223 139.798 55.1146L137.678 49.5151H138.702L139.87 52.7456C140.013 53.1584 140.157 53.5891 140.283 54.0378C140.391 53.607 140.516 53.1763 140.678 52.7635L141.882 49.5151H142.834L140.714 55.2043C140.48 55.8145 140.301 56.2453 140.175 56.4786C140.013 56.7837 139.816 57.017 139.6 57.1606C139.385 57.3041 139.115 57.3759 138.828 57.3759C138.594 57.358 138.397 57.3221 138.181 57.2503Z" fill="white"/>
</g>
<defs>
<clipPath id="clip0_7_2">
<rect width="153" height="57" fill="white"/>
</clipPath>
</defs>
</svg>
